<?xml version="1.0" encoding="utf-8"?>
<!-- Generator: Adobe Illustrator 23.0.4, SVG Export Plug-In . SVG Version: 6.00 Build 0)  -->
<svg version="1.1" id="Layer_1" xmlns="http://www.w3.org/2000/svg" xmlns:xlink="http://www.w3.org/1999/xlink" x="0px" y="0px"
	 viewBox="0 0 164.44 92.86" style="enable-background:new 0 0 164.44 92.86;" xml:space="preserve">
<style type="text/css">
	.st0{fill-rule:evenodd;clip-rule:evenodd;fill:#636466;}
	.st1{fill-rule:evenodd;clip-rule:evenodd;}
</style>
<g>
	<polygon class="st0" points="0,46.43 5.8,46.43 5.8,43.33 0,43.33 0,46.43 	"/>
	<polygon class="st0" points="0,4.26 164.44,4.26 164.44,0 0,0 0,4.26 	"/>
	<polygon class="st0" points="0,92.86 164.44,92.86 164.44,88.6 0,88.6 0,92.86 	"/>
	<polygon class="st0" points="10.06,46.43 15.86,46.43 15.86,43.33 10.06,43.33 10.06,46.43 	"/>
	<polygon class="st0" points="19.73,46.43 25.92,46.43 25.92,43.33 19.73,43.33 19.73,46.43 	"/>
	<polygon class="st0" points="69.26,46.43 75.45,46.43 75.45,43.33 69.26,43.33 69.26,46.43 	"/>
	<polygon class="st0" points="79.32,46.43 85.12,46.43 85.12,43.33 79.32,43.33 79.32,46.43 	"/>
	<polygon class="st0" points="88.99,46.43 95.18,46.43 95.18,43.33 88.99,43.33 88.99,46.43 	"/>
	<polygon class="st0" points="99.05,46.43 104.85,46.43 104.85,43.33 99.05,43.33 99.05,46.43 	"/>
	<polygon class="st0" points="118.78,46.43 124.59,46.43 124.59,43.33 118.78,43.33 118.78,46.43 	"/>
	<polygon class="st0" points="128.84,46.43 134.65,46.43 134.65,43.33 128.84,43.33 128.84,46.43 	"/>
	<polygon class="st0" points="138.51,46.43 144.71,46.43 144.71,43.33 138.51,43.33 138.51,46.43 	"/>
	<polygon class="st0" points="148.57,46.43 154.38,46.43 154.38,43.33 148.57,43.33 148.57,46.43 	"/>
	<polygon class="st0" points="158.25,46.43 164.44,46.43 164.44,43.33 158.25,43.33 158.25,46.43 	"/>
	<path class="st1" d="M27.08,25.92c0-14.7-11.22-8.9-11.22-13.93c0-1.93,1.16-1.55,1.93-1.55c0.39,0,1.16,0.39,6.19,0.39
		c9.29,0,18.18-0.39,27.08-0.39c26.31,0,26.31,15.86,26.31,18.19c0,6.96-3.87,12.77-11.61,15.09v0.39
		c13.16,3.1,17.02,8.9,17.02,18.57c0,14.32-9.67,23.21-27.08,23.21c-15.86,0-21.28-0.39-26.7-0.39c-2.71,0-5.42,0.39-7.74,0.39
		c-2.32,0-3.48,0-3.48-1.55c0-3.48,9.29-0.77,9.29-11.22V25.92L27.08,25.92z M40.24,37.53c0,5.03,1.16,5.8,7.35,6.19h6.19
		c8.12,0,11.22-4.26,11.22-11.99c0-10.06-7.74-16.64-17.41-16.64c-6.96,0-7.35,3.87-7.35,10.06V37.53L40.24,37.53z M40.24,68.48
		c0,10.06,2.71,13.15,13.15,13.15c10.45,0,15.86-6.96,15.86-17.41c0-6.19-3.1-15.86-22.44-15.86c-6.19,0-6.58,2.71-6.58,8.12V68.48
		L40.24,68.48z"/>
	<path class="st1" d="M106.79,20.89c0-7.74-6.58-3.1-6.58-6.96c0-2.71,5.03-1.16,15.09-7.35c0.77-0.39,1.16-0.77,1.93-0.77
		c1.16,0,0.77,2.32,0.77,3.1v42.17c4.26-3.87,8.9-7.35,14.32-7.35c12.38,0,17.02,10.83,17.02,18.18c0,16.25-9.29,24.76-22.44,24.76
		c-9.67,0-12.77-4.26-14.32-4.26c-1.93,0-3.1,4.26-5.42,4.26c-0.77,0-1.16-0.39-1.16-1.16c0-0.77,0.77-3.09,0.77-8.51V20.89
		L106.79,20.89z M118.01,71.97c0,8.9,8.12,10.83,11.22,10.83c8.9,0,10.83-8.51,10.83-15.48c0-8.12-3.87-15.86-13.93-15.86
		c-3.1,0-8.12,1.93-8.12,5.8V71.97L118.01,71.97z"/>
</g>
</svg>
