<?xml version="1.0" encoding="utf-8"?>
<!-- Generator: Adobe Illustrator 23.0.4, SVG Export Plug-In . SVG Version: 6.00 Build 0)  -->
<svg version="1.1" id="Layer_1" xmlns="http://www.w3.org/2000/svg" xmlns:xlink="http://www.w3.org/1999/xlink" x="0px" y="0px"
	 viewBox="0 0 210 210" style="enable-background:new 0 0 210 210;" xml:space="preserve">
<style type="text/css">
	.st0{fill:#FFFFFF;}
	.st1{stroke:#FFFFFF;stroke-width:10;stroke-miterlimit:10;}
	.st2{fill:none;stroke:#FFFFFF;stroke-width:9;stroke-miterlimit:10;}
</style>
<path class="st0" d="M148,155H62c-3.8,0-7-3.1-7-7V62c0-3.8,3.2-7,7-7h86c3.9,0,7,3.2,7,7v86C155,151.9,151.9,155,148,155z"/>
<circle class="st1" cx="105" cy="105" r="100"/>
<path class="st0" d="M161.4,109.1l-46.1,26.6c-3.1,1.8-7.1-0.4-7.1-4.1V78.4c0-3.6,3.9-6,7.1-4.1l46.1,26.6
	C164.5,102.7,164.5,107.3,161.4,109.1z"/>
<path class="st2" d="M55,155"/>
<path class="st2" d="M56.8,57.4"/>
<path class="st2" d="M166.2,136.9L166.2,136.9c-1.4,0-2.5-1.1-2.5-2.5V75.6c0-1.4,1.1-2.5,2.5-2.5l0,0c1.4,0,2.5,1.1,2.5,2.5v58.8
	C168.7,135.8,167.6,136.9,166.2,136.9z"/>
<path class="st0" d="M47.7,109.1l42,26.6c2.9,1.8,6.5-0.4,6.5-4.1V78.4c0-3.6-3.6-6-6.5-4.1l-42,26.6
	C44.8,102.7,44.8,107.3,47.7,109.1z"/>
<path class="st2" d="M43.3,136.9L43.3,136.9c1.3,0,2.3-1,2.3-2.3V75.4c0-1.3-1-2.3-2.3-2.3h0c-1.3,0-2.3,1-2.3,2.3v59.2
	C41,135.9,42,136.9,43.3,136.9z"/>
</svg>
